<?xml version="1.0" encoding="utf-8"?>
<!-- Generator: Adobe Illustrator 27.8.0, SVG Export Plug-In . SVG Version: 6.00 Build 0)  -->
<svg version="1.1" id="Layer_1" xmlns="http://www.w3.org/2000/svg" xmlns:xlink="http://www.w3.org/1999/xlink" x="0px" y="0px"
	 viewBox="0 0 500 500" style="enable-background:new 0 0 500 500;" xml:space="preserve">
<style type="text/css">
	.st0{fill:#EBEBEB;}
	.st1{fill:#E0E0E0;}
	.st2{fill:#F0F0F0;}
	.st3{display:none;}
	.st4{display:inline;}
	.st5{fill:#407BFF;}
	.st6{opacity:0.9;fill:#FFFFFF;enable-background:new    ;}
	.st7{fill:#263238;}
	.st8{opacity:0.3;fill:#407BFF;enable-background:new    ;}
	.st9{fill:#FFFFFF;}
</style>
<g id="Background_Complete">
	<g>
		<rect x="161.9" y="394.2" class="st0" width="11.1" height="0.2"/>
	</g>
	<g>
		<g>
			<path class="st0" d="M216.1,200.9l0.5-13.1l-8.1-2.6c-0.3-4.5-1.1-8.9-2.2-13.2l6.8-5l-4.6-12.3l-8.5,0.7c-2-4-4.4-7.8-7-11.4
				l4.4-7.3l-9-9.6l-7.6,3.9c-3.4-2.9-7-5.5-10.8-7.8l1.2-8.4l-12-5.4l-5.5,6.4c-4.2-1.4-8.5-2.4-13-3l-2-8.2l-13.2-0.5l-2.6,8.1
				c-4.5,0.4-8.9,1.1-13.2,2.2l-5.1-6.8l-12.3,4.6l0.7,8.5c-4,2-7.8,4.4-11.4,7.1l-7.3-4.4l-9.6,9l3.9,7.6c-2.9,3.4-5.5,7-7.8,10.8
				l-8.4-1.3l-5.5,12l6.5,5.5c-1.4,4.2-2.4,8.6-3,13l-8.3,2.1l-0.5,13.1l8.1,2.6c0.3,4.5,1.1,8.9,2.2,13.2l-6.8,5l4.6,12.3l8.5-0.7
				c2,4,4.4,7.8,7,11.4l-4.4,7.3l9,9.6l7.6-3.9c3.4,2.9,7,5.5,10.8,7.8l-1.3,8.4l12,5.4l5.5-6.4c4.2,1.4,8.5,2.4,13,3l2,8.2
				l13.2,0.5l2.6-8.1c4.5-0.4,8.9-1.1,13.2-2.2l5,6.8l12.3-4.6l-0.6-8.5c4-2,7.8-4.4,11.4-7.1l7.3,4.4l9.6-9l-3.9-7.6
				c2.9-3.4,5.5-7,7.8-10.8l8.4,1.3l5.5-12l-6.5-5.5c1.4-4.2,2.4-8.5,3-13L216.1,200.9z M127.3,243.4c-28.8-1-51.3-25.1-50.3-53.9
				s25.1-51.3,53.9-50.4c28.8,1,51.3,25.1,50.3,53.9C180.2,221.9,156.1,244.4,127.3,243.4z"/>
		</g>
		<g>
			<path class="st0" d="M441,157.4l3.3-3.1l-1.3-2.6c1-1.2,1.9-2.4,2.7-3.7l2.9,0.4l1.9-4.1l-2.2-1.9c0.5-1.5,0.8-3,1.1-4.5l2.9-0.7
				l0.1-4.5l-2.8-0.9c-0.1-1.5-0.4-3.1-0.7-4.6l2.3-1.7l-1.6-4.3l-2.9,0.2c-0.7-1.4-1.5-2.7-2.4-3.9l1.5-2.5l-3.1-3.3l-2.6,1.3
				c-1.2-1-2.4-1.9-3.7-2.7l0.4-2.9l-4.1-1.9l-1.9,2.2c-1.5-0.5-3-0.8-4.5-1l-0.7-2.8l-4.5-0.2l-0.9,2.8c-1.5,0.1-3.1,0.4-4.5,0.7
				l-1.7-2.4l-4.3,1.6l0.2,2.9c-1.4,0.7-2.7,1.5-3.9,2.4l-2.5-1.5l-3.3,3.1l1.3,2.6c-1,1.2-1.9,2.4-2.7,3.7l-2.9-0.4l-1.9,4.1
				l2.2,1.9c-0.5,1.5-0.8,3-1.1,4.5l-2.9,0.7l-0.1,4.5l2.8,0.9c0.1,1.5,0.4,3.1,0.7,4.6l-2.4,1.7l1.6,4.3l2.9-0.2
				c0.7,1.4,1.5,2.7,2.4,3.9l-1.5,2.5l3.1,3.3l2.6-1.3c1.2,1,2.4,1.9,3.7,2.7l-0.4,2.9l4.1,1.9l1.9-2.2c1.5,0.5,3,0.8,4.5,1l0.7,2.8
				l4.5,0.2l0.9-2.8c1.5-0.1,3.1-0.4,4.5-0.7l1.7,2.4l4.3-1.6l-0.2-2.9c1.4-0.7,2.7-1.5,3.9-2.4L441,157.4z M417.3,138.3
				c-2.4-2.6-2.3-6.7,0.3-9.1c2.6-2.4,6.7-2.3,9.1,0.3s2.3,6.7-0.3,9.1C423.9,141,419.8,140.9,417.3,138.3z"/>
		</g>
		<path class="st0" d="M320,292.3l-10.3-7.1l0,0c-1-3.8-2.4-7.4-4.2-10.8l2.6-10.4l-15-16.1l-10.6,1.9c-3.3-2-6.8-3.6-10.5-4.9l0,0
			l-6.4-10.8l-22-0.8l-7.1,10.3l0,0c-3.8,1-7.4,2.4-10.8,4.2l-10.4-2.6l-16.1,15l1.9,10.5l0,0c-2,3.3-3.6,6.8-4.9,10.5l-10.8,6.4
			l-0.8,22l10.4,7.1c1,3.8,2.4,7.4,4.1,10.8l0,0l-2.6,10.4l15,16.1l10.5-1.9c3.3,2,6.8,3.6,10.5,4.9l0,0l6.4,10.8l22,0.8l7.1-10.3
			c3.8-1,7.4-2.4,10.9-4.2l0,0l10.3,2.6l16.1-15l-1.9-10.5c2-3.3,3.6-6.8,4.9-10.5l0,0l10.8-6.4L320,292.3z M251.5,325.7
			c-13.7-0.5-24.3-11.9-23.9-25.5c0.5-13.7,11.9-24.3,25.5-23.9c13.7,0.5,24.3,11.9,23.9,25.5C276.6,315.5,265.2,326.2,251.5,325.7z
			"/>
		<path class="st0" d="M343.5,230L343.5,230l-17.4-0.6c-0.7,0-1.4-0.4-1.7-1l-4.7-7.9c-2.5-0.9-4.9-2-7.3-3.4l-7.5,1.4
			c-0.7,0.1-1.4-0.1-1.9-0.6l-11.8-12.7c-0.5-0.5-0.7-1.3-0.5-2l1.9-7.4c-1.1-2.3-2.1-4.9-2.9-7.5l-7.5-5.2
			c-0.6-0.4-0.9-1.1-0.9-1.8l0.6-17.3c0-0.7,0.4-1.4,1-1.7l7.9-4.7c0.9-2.6,2.1-5,3.4-7.2l-1.4-7.5c-0.1-0.7,0.1-1.4,0.6-1.9
			l12.7-11.8c0.5-0.5,1.3-0.7,2-0.5l7.4,1.9c2.4-1.2,4.9-2.1,7.4-2.9l5.2-7.5c0.4-0.6,1.1-1,1.8-0.9l17.3,0.6c0.7,0,1.4,0.4,1.7,1
			l4.7,7.9c2.5,0.9,4.9,2,7.2,3.4l7.6-1.4c0.7-0.1,1.4,0.1,1.9,0.6l11.8,12.7c0.5,0.5,0.7,1.3,0.5,2l-1.9,7.4
			c1.2,2.4,2.1,4.9,2.9,7.4l7.5,5.2c0.6,0.4,0.9,1.1,0.9,1.8l-0.6,17.3c0,0.7-0.4,1.4-1,1.7l-7.9,4.7c-0.9,2.6-2.1,5-3.4,7.2
			l1.4,7.5c0.1,0.7-0.1,1.4-0.6,1.9L367.3,220c-0.5,0.5-1.3,0.7-2,0.5l-7.4-1.9c-2.4,1.2-5,2.1-7.5,2.9l-5.2,7.5
			C344.9,229.6,344.2,230,343.5,230z M327.5,225.2l15,0.5l5-7.2c0.3-0.4,0.7-0.7,1.2-0.8c2.8-0.7,5.5-1.8,8.2-3.1l0,0
			c0.4-0.2,1-0.3,1.5-0.2l7,1.8l11-10.2l-1.3-7.2c-0.1-0.5,0-1,0.3-1.5c1.4-2.4,2.7-5,3.7-7.8c0.2-0.5,0.5-0.9,0.9-1.2l7.5-4.5
			l0.5-15l-7.2-5c-0.4-0.3-0.7-0.6-0.8-1.1c0-0.1,0-0.1,0-0.2c-0.8-2.8-1.8-5.5-3.1-8.1c-0.2-0.5-0.3-1-0.2-1.5l1.8-7.1l-10.2-11
			l-7.2,1.3c-0.5,0.1-1,0-1.5-0.3c-2.5-1.5-5.1-2.7-7.8-3.7c-0.2-0.1-0.3-0.1-0.4-0.2c-0.3-0.2-0.5-0.4-0.7-0.7l-4.5-7.5l-15-0.5
			l-5,7.2c-0.3,0.4-0.7,0.7-1.2,0.9c-2.8,0.8-5.5,1.8-8.1,3.1c-0.5,0.2-1,0.3-1.5,0.2l-7.1-1.8l-11,10.3l1.3,7.2
			c0.1,0.5,0,0.9-0.2,1.3c0,0.1-0.1,0.1-0.1,0.2c-1.5,2.4-2.7,5.1-3.7,7.9c-0.2,0.5-0.5,0.9-0.9,1.1l-7.5,4.5l-0.5,15l7.2,5
			c0.4,0.3,0.7,0.7,0.8,1.2c0.8,2.9,1.8,5.6,3.1,8.1c0.1,0.1,0.1,0.3,0.2,0.5c0.1,0.3,0.1,0.7,0,1l-1.8,7.1l10.2,11l7.1-1.3
			c0.5-0.1,1,0,1.5,0.3c2.5,1.5,5.2,2.7,7.9,3.7c0.5,0.2,0.9,0.5,1.2,0.9L327.5,225.2z M352.2,130.4L352.2,130.4L352.2,130.4z
			 M336.7,206.2c-0.4,0-0.7,0-1.1,0c-17.4-0.6-31.2-15.3-30.6-32.7s15.3-31.1,32.7-30.6c17.4,0.6,31.2,15.3,30.6,32.7
			c-0.3,8.4-3.9,16.3-10,22C352.4,203.2,344.8,206.2,336.7,206.2z M336.7,147.1c-14.7,0-26.9,11.7-27.4,26.5
			c-0.5,15.1,11.4,27.8,26.5,28.4c7.3,0.2,14.3-2.4,19.7-7.4c5.4-5,8.4-11.8,8.7-19.1c0.5-15.1-11.4-27.8-26.5-28.4
			C337.3,147.1,337,147.1,336.7,147.1z"/>
		<g>
			<polygon class="st1" points="383.4,105.3 376.3,103.4 374.3,96.2 377.1,93.4 380.1,99.6 386.2,102.5 			"/>
			<path class="st1" d="M383.9,100.5c1.3-1.3,1.3-3.4,0-4.7c-1.3-1.3-3.4-1.3-4.7,0l3.6-5.4l4.8,2.4l1,5L383.9,100.5z"/>
			<path class="st2" d="M376.6,94l5.3-5.3l7.2,1.9l1.9,7.2l-5.3,5.3l-7.2-1.9L376.6,94z M386.1,98.3c1.3-1.3,1.3-3.4,0-4.7
				c-1.3-1.3-3.4-1.3-4.7,0c-1.3,1.3-1.3,3.4,0,4.7C382.7,99.6,384.8,99.6,386.1,98.3z"/>
		</g>
		<g>
			<polygon class="st1" points="90.2,296.7 94.1,295.7 95.1,291.8 93.6,290.3 92,293.6 88.7,295.2 			"/>
			<path class="st1" d="M90,294.1c-0.7-0.7-0.7-1.8,0-2.5s1.8-0.7,2.5,0l-1.9-2.9L88,290l-0.6,2.7L90,294.1z"/>
			<path class="st2" d="M93.9,290.6l-2.8-2.8l-3.8,1l-1,3.8l2.8,2.8l3.8-1L93.9,290.6z M88.8,292.9c-0.7-0.7-0.7-1.8,0-2.5
				s1.8-0.7,2.5,0s0.7,1.8,0,2.5C90.6,293.6,89.5,293.6,88.8,292.9z"/>
		</g>
		<g>
			<path class="st2" d="M76.4,85.7l3.2,3.2c0.8,0.8,2.2,0.8,3,0l0,0c0.8-0.8,0.8-2.2,0-3l-3.2-3.2c-0.8-0.8-2.2-0.8-3,0l0,0
				C75.5,83.5,75.5,84.8,76.4,85.7z"/>
			<path class="st1" d="M74.1,77.7c2.5-0.9,5.1,0.3,6,2.6c0.8,2.3-0.5,4.9-3,5.8s-5.1-0.3-6-2.6C70.3,81.2,71.6,78.6,74.1,77.7z"/>
			<rect x="70.5" y="81.2" transform="matrix(0.9411 -0.338 0.338 0.9411 -23.2423 30.37)" class="st2" width="10.1" height="1.4"/>
		</g>
	</g>
</g>
<g id="Background_Simple" class="st3">
	<g class="st4">
		<path class="st5" d="M418.9,125.4c39.3,31.8,35.5,75.6,1.8,100.5c-16.1,12-48.7,9.6-67.2,18.1c-24.1,11-36.4,31.4-54.9,47.7
			c-46,40.5-61,20.5-113.3,21c-36.8,0.4-71.8,31.4-108.7,10.1c-45.1-26-17.2-78.2,19.6-98.3c42.3-23.1,15.7-77.5,76.5-117.5
			C232.6,67.5,360.6,76.8,418.9,125.4z"/>
		<path class="st6" d="M418.9,125.4c39.3,31.8,35.5,75.6,1.8,100.5c-16.1,12-48.7,9.6-67.2,18.1c-24.1,11-36.4,31.4-54.9,47.7
			c-46,40.5-61,20.5-113.3,21c-36.8,0.4-71.8,31.4-108.7,10.1c-45.1-26-17.2-78.2,19.6-98.3c42.3-23.1,15.7-77.5,76.5-117.5
			C232.6,67.5,360.6,76.8,418.9,125.4z"/>
	</g>
</g>
<g id="Oops_x21_">
	<g>
		<path class="st7" d="M86.7,120.6c-1-4.4-0.6-8.1,1.3-11.1s5-5,9.4-6c4.5-1,8.2-0.6,11.2,1.3s5,5,5.9,9.3c0.7,3.2,0.8,5.9,0.2,8.1
			c-0.6,2.3-1.8,4.2-3.5,5.8c-1.8,1.6-4.1,2.7-7.1,3.4s-5.7,0.8-7.9,0.3c-2.2-0.5-4.2-1.7-5.9-3.5C88.6,126.3,87.4,123.8,86.7,120.6
			z M95.1,118.8c0.6,2.7,1.6,4.6,2.9,5.5c1.3,1,2.8,1.2,4.5,0.8c1.8-0.4,3-1.3,3.8-2.7s0.7-3.6,0-6.6c-0.6-2.5-1.5-4.3-2.8-5.2
			c-1.3-0.9-2.8-1.2-4.6-0.8c-1.7,0.4-2.9,1.3-3.6,2.7C94.5,114,94.4,116,95.1,118.8z"/>
		<path class="st7" d="M118.6,117.3c-0.7-3-0.2-5.7,1.3-8.1c1.6-2.4,4.1-4,7.5-4.8c3.9-0.9,7.1-0.4,9.6,1.4c2,1.5,3.3,3.5,3.9,6.2
			c0.7,3,0.2,5.7-1.3,8.1c-1.6,2.4-4.1,4-7.6,4.8c-3.1,0.7-5.9,0.5-8.2-0.7C121.1,122.9,119.3,120.5,118.6,117.3z M126.1,115.6
			c0.4,1.7,1,2.9,1.9,3.6c0.9,0.7,1.9,0.9,2.9,0.6c1.1-0.2,1.9-0.9,2.4-1.8c0.5-1,0.6-2.4,0.1-4.2c-0.4-1.7-1-2.9-1.9-3.5
			c-0.9-0.7-1.8-0.9-2.9-0.7c-1.1,0.2-1.9,0.9-2.4,1.9C125.8,112.5,125.7,113.9,126.1,115.6z"/>
		<path class="st7" d="M148.6,128.6l-6.1-27l7-1.6l0.7,2.9c0.7-1.4,1.4-2.5,2.1-3.1c1-0.8,2.1-1.4,3.4-1.7c2.6-0.6,4.9-0.1,6.7,1.6
			c1.9,1.7,3.2,4,3.8,6.9c0.7,3.3,0.5,5.9-0.6,8c-1.2,2.1-2.9,3.4-5.3,3.9c-1.2,0.3-2.2,0.3-3.3,0.1c-1-0.2-2-0.6-2.9-1.2l2.1,9.3
			L148.6,128.6z M152.2,109.7c0.4,1.5,0.9,2.6,1.8,3.2c0.8,0.6,1.7,0.8,2.7,0.6c0.9-0.2,1.5-0.7,1.9-1.6s0.4-2.1,0.1-3.9
			c-0.4-1.6-0.9-2.7-1.7-3.3c-0.8-0.6-1.6-0.8-2.5-0.6c-1,0.2-1.7,0.8-2.1,1.7C151.9,106.7,151.8,108,152.2,109.7z"/>
		<path class="st7" d="M169.4,110.3l7.3-2.4c0.5,0.8,1.1,1.3,1.7,1.6c0.6,0.3,1.4,0.3,2.3,0.1c1-0.2,1.7-0.6,2.2-1.2
			c0.4-0.4,0.5-0.9,0.4-1.3c-0.1-0.5-0.5-0.9-1.1-1.1c-0.5-0.1-1.6-0.1-3.4,0c-2.7,0.1-4.6,0.1-5.7,0c-1.1-0.2-2.1-0.6-3-1.4
			s-1.5-1.7-1.8-2.9c-0.3-1.3-0.2-2.5,0.4-3.6c0.5-1.1,1.4-2,2.6-2.8c1.2-0.8,2.9-1.4,5.1-1.9c2.3-0.5,4.1-0.7,5.3-0.6
			s2.2,0.4,3.2,1c0.9,0.6,1.8,1.5,2.5,2.6l-6.9,2.3c-0.3-0.6-0.7-1-1.2-1.2c-0.7-0.3-1.4-0.3-2.3-0.1c-0.8,0.2-1.4,0.5-1.7,0.9
			s-0.4,0.8-0.3,1.2c0.1,0.5,0.4,0.8,1,0.9c0.5,0.1,1.7,0.1,3.4-0.1c2.6-0.3,4.5-0.3,5.8-0.1c1.3,0.2,2.4,0.7,3.3,1.5
			c0.9,0.8,1.4,1.7,1.7,2.9c0.3,1.1,0.2,2.3-0.3,3.5c-0.4,1.2-1.3,2.3-2.6,3.3s-3.2,1.7-5.8,2.3c-3.6,0.8-6.2,0.9-8,0.2
			C171.6,113.3,170.3,112.1,169.4,110.3z"/>
		<path class="st7" d="M193.8,85.6h8.2v6.3l-1.5,12.7h-5.1l-1.6-12.7L193.8,85.6z M194.2,106.5h7.7v6.8h-7.7V106.5z"/>
	</g>
</g>
<g>
	<g>
		<path class="st7" d="M128.7,171.6c-0.1,0-0.1,0-0.2,0c-4.5-1.7-7.2-3.4-8.6-5.5c-1,0.2-2.2,0.1-3.2-0.4s-2.1-1.4-2.8-2.6
			c-0.7,0.5-1.5,0.7-2.4,0.4c-1-0.3-2.1-1.2-3-2.4c-0.6,0.4-1.1,0.5-1.6,0.4c-3-0.2-7-6.2-7.3-12.5c0-0.3,0.2-0.5,0.5-0.5
			s0.5,0.2,0.5,0.5c0.3,6,4.1,11.3,6.4,11.5c0.4,0,0.7-0.1,0.9-0.3c-1.4-2.4-2.1-5.8-1-9.4c0.9-3,1.6-4.2,2.5-4
			c1.7,0.4,1.5,7,0.6,11.3c-0.2,1-0.5,1.7-0.8,2.2c0.8,1.2,1.7,1.9,2.5,2.2c0.7,0.2,1.3,0,1.7-0.3c-0.8-1.9-0.9-4.6,0.1-7.9
			c1.4-4.4,2-4.5,2.3-4.6c0.2-0.1,0.5,0,0.6,0.2c0.9,1-0.2,7.9-1.3,11.3c-0.2,0.4-0.3,0.8-0.6,1.2c0.6,1.2,1.5,2,2.5,2.5
			c0.8,0.4,1.6,0.5,2.3,0.4c-0.1-0.2-0.2-0.4-0.2-0.6c-0.8-2.1-0.4-4.6,1.2-7.6c1.1-2,1.9-2.9,2.7-2.9l0,0c0.2,0,0.7,0.1,1,0.7
			c0.9,1.6,0.2,6.9-1.5,9.6c-0.4,0.6-1,1.1-1.6,1.4c1.3,1.8,3.9,3.3,7.9,4.9c0.3,0.1,0.4,0.4,0.3,0.6
			C129.1,171.5,128.9,171.6,128.7,171.6z M123,155.1c0,0-0.6,0-1.8,2.3c-1.4,2.7-1.8,4.9-1.1,6.8c0.1,0.2,0.2,0.5,0.3,0.7
			c0.5-0.2,1-0.6,1.3-1.1c1.4-2.1,2.1-6.5,1.5-8.3C123.1,155.2,123,155.1,123,155.1z M115.9,150.9c-0.3,0.5-0.7,1.5-1.3,3.5
			c-0.9,2.7-0.9,4.9-0.4,6.5c0-0.1,0.1-0.2,0.1-0.3C115.4,157.3,116,152.5,115.9,150.9z M109.3,147.7c-0.2,0.2-0.7,0.8-1.4,3.2
			c-0.9,3.2-0.4,6.1,0.7,8.2c0.2-0.4,0.4-0.9,0.5-1.4C110.1,152.9,109.8,148.5,109.3,147.7z"/>
		<path class="st7" d="M166.7,224c-1.5,0-3.1-0.3-4.6-1.2c-0.2-0.1-0.3-0.4-0.2-0.7c0.1-0.2,0.4-0.3,0.7-0.2
			c3.6,2.1,8.2,0.6,9.1-0.9c0.1-0.2,0.2-0.4,0.1-0.7c-1.4,0.1-3.1-0.2-5.1-1.5c-2.5-1.6-2.7-2.1-2.7-2.4c0-0.2,0.1-0.4,0.3-0.5
			c1-0.5,5.5,1.6,7.4,2.8c0.2,0.2,0.5,0.3,0.6,0.5c0.8-0.2,1.5-0.6,1.9-1.1c0.3-0.4,0.5-0.7,0.6-1.1c-0.1,0-0.1,0-0.2,0
			c-1.6,0.2-3.2-0.5-4.9-2.1c-1.2-1.1-1.6-1.8-1.5-2.4c0-0.2,0.2-0.5,0.7-0.7c1.4-0.3,4.8,1.1,6.2,2.6c0.3,0.3,0.5,0.7,0.6,1.2
			c1.3-0.6,2.7-2,4.3-4.3c0.2-0.2,0.5-0.3,0.7-0.1s0.3,0.5,0.1,0.7c-1.9,2.6-3.5,4.1-5,4.7c-0.1,0.7-0.4,1.4-0.9,2s-1.2,1.1-2.2,1.4
			c0.1,0.5,0,0.9-0.3,1.4C171.8,222.9,169.4,224,166.7,224z M165.8,217.1c0.3,0.2,0.8,0.6,1.5,1c1.4,0.8,2.6,1.2,3.6,1.3
			C169.3,218.4,167.1,217.5,165.8,217.1z M169.3,212.8c0.1,0.2,0.3,0.6,1.2,1.4c1.5,1.4,2.8,2,4.1,1.8c0.1,0,0.2,0,0.3,0
			c-0.1-0.3-0.2-0.6-0.4-0.8C173.1,213.6,170,212.7,169.3,212.8z"/>
		<path class="st5" d="M179.9,222.6l-15.6,2.8l-14.1-77.2l-30.1,5.5l-49,87l5.3,28.7l62.8-11.4l4.3,23.5l30.1-5.5l-4.3-23.5
			l15.6-2.8L179.9,222.6z M101.1,236.9l26-45.6l7.2,39.5L101.1,236.9z"/>
	</g>
	<g>
		<path class="st5" d="M305.4,143c-0.6-5.3-1.6-10.1-3.2-14.2c-1.5-4.1-3.9-8.2-7-12.2s-7.3-7.4-12.7-10.4c-5.4-2.9-12.4-5-21.2-6.1
			c-18.3-2.4-32.6,0.9-42.8,9.7c-10.2,8.9-17,25.9-20.2,51c-1.3,10.2-1.6,19.7-1,28.3c0.7,8.7,2.3,15.7,4.8,20.9
			c3.5,7.4,8.3,13.3,14.6,17.8c6.3,4.4,15,7.4,25.9,8.8c19.6,2.6,34.1-1.2,43.6-11.3c9.4-10.1,15.7-27.1,18.8-51.1
			C306.5,163.6,306.6,153.2,305.4,143z"/>
		<path class="st7" d="M251.8,226.4c-2.4-0.1-5-0.3-7.6-0.6c-9.2-1.2-16.2-3.5-21.1-6.9c-4.8-3.3-8.3-7.7-11-13.4v-0.1
			c-1.9-4-3.2-9.8-3.7-17c-0.6-7.9-0.3-16.7,0.9-26.1c3.6-27.7,10.9-39.3,16.5-44.1c6.5-5.6,15.2-8.2,26.7-7.8
			c2.4,0.1,4.9,0.3,7.4,0.6c7.4,1,13.2,2.6,17.4,4.9c4,2.2,7.1,4.7,9.3,7.5c2.4,3.1,4.2,6.2,5.4,9.3c1.2,3.3,2.1,7.2,2.6,11.6
			c1.1,9.3,1,19-0.3,28.7c-2.8,21.5-8.1,36.7-15.9,45C272.5,224.1,263.8,226.8,251.8,226.4L251.8,226.4z"/>
		<g>
			<path class="st5" d="M271.3,143.3l0.1-3.8l-2.3-0.8c-0.1-1.3-0.3-2.6-0.6-3.8l2-1.5l-1.3-3.6l-2.4,0.2c-0.6-1.2-1.3-2.2-2-3.3
				l1.3-2.1l-2.6-2.8l-2.2,1.1c-1-0.8-2-1.6-3.1-2.3l0.4-2.4l-3.5-1.6l-1.6,1.9c-1.2-0.4-2.5-0.7-3.8-0.9l-0.6-2.4l-3.8-0.1
				l-0.8,2.3c-1.3,0.1-2.6,0.3-3.8,0.6l-1.5-2l-3.6,1.3l0.2,2.4c-1.2,0.6-2.2,1.3-3.3,2l-2.1-1.3l-2.8,2.6l1.1,2.2
				c-0.8,1-1.6,2-2.2,3.1l-2.4-0.4l-1.6,3.5l1.9,1.6c-0.4,1.2-0.7,2.5-0.9,3.8l-2.4,0.6l-0.1,3.8l2.3,0.8c0.1,1.3,0.3,2.6,0.6,3.8
				l-2,1.5l1.3,3.6l2.4-0.2c0.6,1.2,1.3,2.2,2,3.3l-1.3,2.1l2.6,2.8l2.2-1.1c1,0.8,2,1.6,3.1,2.3l-0.4,2.4l3.5,1.6l1.6-1.9
				c1.2,0.4,2.5,0.7,3.8,0.9l0.6,2.4l3.8,0.1l0.8-2.3c1.3-0.1,2.6-0.3,3.8-0.6l1.5,2l3.6-1.3l-0.2-2.4c1.2-0.6,2.2-1.3,3.3-2
				l2.1,1.3l2.8-2.6l-1.1-2.2c0.8-1,1.6-2,2.2-3.1l2.4,0.4l1.6-3.5l-1.9-1.6c0.4-1.2,0.7-2.5,0.9-3.8L271.3,143.3z M245.7,155.6
				c-8.3-0.3-14.8-7.2-14.5-15.5s7.2-14.8,15.5-14.5s14.8,7.2,14.5,15.5C261,149.3,254,155.8,245.7,155.6z"/>
		</g>
		<g>
			<path class="st8" d="M287.1,212.9l0.3-2.6l-1.5-0.6c0-0.9-0.1-1.7-0.2-2.6l1.4-0.9l-0.7-2.5h-1.7c-0.3-0.8-0.7-1.6-1.2-2.3
				l0.9-1.4l-1.6-2l-1.5,0.6c-0.6-0.6-1.3-1.2-2-1.7l0.4-1.6l-2.3-1.2l-1.2,1.2c-0.8-0.3-1.6-0.6-2.5-0.8l-0.3-1.6l-2.6-0.3
				l-0.6,1.5c-0.9,0-1.7,0.1-2.6,0.2l-0.9-1.4l-2.5,0.7v1.7c-0.8,0.3-1.6,0.7-2.3,1.2l-1.4-1l-2,1.6l0.6,1.5c-0.6,0.6-1.2,1.3-1.7,2
				l-1.6-0.4l-1.2,2.3l1.2,1.2c-0.3,0.8-0.6,1.6-0.8,2.5l-1.6,0.3l-0.3,2.6l1.5,0.6c0,0.9,0.1,1.7,0.2,2.6l-1.4,0.9l0.7,2.5h1.7
				c0.3,0.8,0.7,1.6,1.2,2.3l-1,1.4l1.6,2l1.5-0.6c0.6,0.6,1.3,1.2,2,1.7L261,224l2.3,1.2l1.2-1.2c0.8,0.3,1.6,0.6,2.5,0.8l0.3,1.6
				l2.6,0.3l0.6-1.5c0.9,0,1.7-0.1,2.6-0.2l0.9,1.4l2.5-0.7V224c0.8-0.3,1.6-0.7,2.3-1.2l1.3,1l2-1.6l-0.6-1.5
				c0.6-0.6,1.2-1.3,1.7-2l1.6,0.4l1.2-2.3l-1.2-1.2c0.3-0.8,0.6-1.6,0.8-2.5L287.1,212.9z M274.2,211.9c-1.2,2.2-3.9,3-6.1,1.8
				s-2.9-3.9-1.8-6.1c1.2-2.2,3.9-2.9,6.1-1.8C274.6,207,275.4,209.7,274.2,211.9z"/>
		</g>
		<path class="st9" d="M301.3,169.6l-3-2.1l0,0c-0.3-1.1-0.7-2.1-1.2-3.1l0.8-3l-4.3-4.6l-3,0.6c-0.9-0.6-2-1-3-1.4l0,0l-1.9-3.1
			l-6.3-0.2l-2.1,3l0,0c-1.1,0.3-2.1,0.7-3.1,1.2l-3-0.8l-4.6,4.3l0.6,3l0,0c-0.6,1-1,2-1.4,3l-3.1,1.8l-0.2,6.3l3,2.1
			c0.3,1.1,0.7,2.1,1.2,3.1l0,0l-0.8,3l4.3,4.6l3-0.6c1,0.6,2,1,3,1.4l0,0l1.8,3.1l6.3,0.2l2.1-3c1.1-0.3,2.1-0.7,3.1-1.2l0,0l3,0.8
			l4.6-4.3l-0.6-3c0.6-1,1-2,1.4-3l0,0l3.1-1.9L301.3,169.6z M281.6,179.3c-3.9-0.1-7-3.4-6.9-7.4c0.1-3.9,3.4-7,7.4-6.9
			c3.9,0.1,7,3.4,6.9,7.4C288.8,176.3,285.5,179.4,281.6,179.3z"/>
		<path class="st5" d="M323,119.1l0.5-1.3l0,0c0.4-0.2,0.7-0.4,1-0.7h1.2l1.4-2l-0.4-1.1c0.1-0.4,0.2-0.8,0.3-1.2l0,0l1-0.9
			l-0.4-2.3l-1.3-0.5l0,0c-0.2-0.4-0.4-0.7-0.7-1v-1.2l-2-1.4l-1.1,0.4l0,0c-0.4-0.1-0.8-0.2-1.2-0.3l-0.9-1l-2.3,0.4l-0.5,1.3
			c-0.4,0.2-0.7,0.4-1.1,0.7l0,0h-1.2l-1.4,2l0.4,1.1c-0.1,0.4-0.2,0.8-0.3,1.2l0,0l-1,0.9l0.4,2.3l1.3,0.5c0.2,0.4,0.4,0.7,0.7,1.1
			l0,0v1.2l2,1.4l1.1-0.4c0.4,0.1,0.8,0.2,1.2,0.3l0,0l0.9,1L323,119.1z M318,112.6c-0.3-1.5,0.7-2.8,2.2-3.1
			c1.5-0.3,2.8,0.7,3.1,2.2s-0.7,2.8-2.2,3.1C319.6,115.1,318.2,114.1,318,112.6z"/>
		<path class="st5" d="M295.6,112.5l-0.8-0.6c1.3-1.6,3.2-3.6,6-5l0.5,0.9C298.3,109.3,296.4,111.5,295.6,112.5z"/>
		<path class="st5" d="M303.6,106.8l-0.4-0.9c3.8-1.6,7.7-2.3,11.7-1.9l-0.1,1C311,104.6,307.2,105.2,303.6,106.8z"/>
		<path class="st5" d="M301.7,113.7l-0.8-0.6c2.1-3,6.1-5.6,9.9-6.4l0.2,1C307.4,108.4,303.6,110.9,301.7,113.7z"/>
		<path class="st9" d="M235.3,210c-0.1,0-0.3-0.1-0.4-0.2l-2.1-2.2c-1.1-0.1-2.1-0.3-3.1-0.6l-3.3,1.4c-0.2,0.1-0.3,0.1-0.5,0
			l-5.5-3.6c-0.1-0.1-0.2-0.3-0.2-0.4l0.1-3.6c-0.7-0.8-1.3-1.7-1.8-2.7l-2.8-1.1c-0.2-0.1-0.3-0.2-0.3-0.4l-1.3-6.4
			c0-0.2,0-0.3,0.1-0.5l2.2-2.1c0.1-1.1,0.3-2.1,0.6-3.1l-1.4-3.3c-0.1-0.2-0.1-0.3,0-0.5l3.6-5.5c0.1-0.1,0.2-0.2,0.4-0.2l3.6,0.1
			c0.8-0.7,1.7-1.3,2.7-1.8l1.1-2.8c0.1-0.2,0.2-0.3,0.4-0.3l6.4-1.3c0.2,0,0.3,0,0.5,0.1l2.1,2.2c1.1,0.1,2.1,0.3,3.2,0.6l3.3-1.4
			c0.2-0.1,0.3-0.1,0.5,0l5.5,3.6c0.1,0.1,0.2,0.3,0.2,0.4L249,178c0.7,0.8,1.3,1.7,1.8,2.7l2.8,1.1c0.2,0.1,0.3,0.2,0.3,0.4
			l1.3,6.4c0,0.2,0,0.3-0.1,0.5l-2.2,2.1c-0.1,1.1-0.3,2.1-0.6,3.1l1.4,3.3c0.1,0.2,0.1,0.3,0,0.5l-3.6,5.5
			c-0.1,0.1-0.2,0.2-0.4,0.2l-3.6-0.1c-0.8,0.7-1.7,1.3-2.7,1.8l-1.1,2.8c-0.1,0.2-0.2,0.3-0.4,0.3L235.3,210
			C235.4,210,235.4,210,235.3,210z M229.7,206h0.1c1.1,0.3,2.2,0.5,3.3,0.6c0.1,0,0.2,0.1,0.3,0.2l2,2.1l5.9-1.2l1.1-2.7
			c0-0.1,0.1-0.2,0.2-0.3c1-0.5,2-1.1,2.8-1.9c0.1-0.1,0.2-0.1,0.3-0.1l3.5,0.1l3.3-5l-1.4-3.2c0-0.1-0.1-0.2,0-0.3
			c0.3-1.1,0.5-2.2,0.6-3.3c0-0.1,0.1-0.2,0.1-0.3l2.1-2l-1.2-5.9l-2.7-1.1c-0.1,0-0.2-0.1-0.3-0.2c-0.5-1-1.1-1.9-1.9-2.8
			c-0.1-0.1-0.1-0.2-0.1-0.3l0.1-3.5l-5-3.3l-3.2,1.4c-0.1,0-0.2,0.1-0.3,0c-1.1-0.3-2.2-0.5-3.3-0.6c-0.1,0-0.2-0.1-0.3-0.1l-2-2.1
			l-5.9,1.2l-1.1,2.7c0,0.1-0.1,0.2-0.2,0.3c-1,0.5-1.9,1.1-2.8,1.9c-0.1,0.1-0.2,0.1-0.3,0.1l-3.5-0.1l-3.3,5l1.4,3.2
			c0.1,0.1,0.1,0.3,0,0.4c-0.3,1-0.5,2.1-0.6,3.2c0,0.1-0.1,0.2-0.1,0.3l-2.1,2l1.2,5.9l2.7,1.1c0.1,0,0.2,0.1,0.3,0.3
			c0.5,1,1.1,1.9,1.8,2.8c0.1,0.1,0.1,0.2,0.1,0.3l-0.1,3.5l5,3.3l3.2-1.4C229.6,206,229.6,206,229.7,206z M234.6,202.8
			c-2.5,0-5.1-0.7-7.3-2.2c-3-2-5-5-5.7-8.5s0-7,1.9-10l0,0c4.1-6.1,12.4-7.8,18.5-3.8c6.1,4.1,7.8,12.3,3.7,18.5
			C243.2,200.7,238.9,202.8,234.6,202.8z M224.4,182.7c-1.8,2.7-2.5,6-1.8,9.3c0.7,3.2,2.5,6,5.3,7.8c5.7,3.8,13.3,2.2,17.1-3.5
			s2.2-13.3-3.5-17.1S228.1,177,224.4,182.7L224.4,182.7z"/>
	</g>
	<g>
		<path class="st5" d="M425.8,231.6l-15.7-2.1l10.4-77.8l-30.3-4.1l-73.5,67.6l-3.9,28.9l63.3,8.5l-3.2,23.7l30.3,4.1l3.2-23.7
			l15.7,2.1L425.8,231.6z M346.4,220.9l38.8-35.3l-5.3,39.8L346.4,220.9z"/>
	</g>
</g>
<g>
	<path class="st7" d="M268.4,304.1l23.8,1.6l-0.4,6.1l-14.9-1.1l-0.3,4.5l13.8,1l-0.4,5.9l-13.8-1l-0.4,5.6l15.4,1.1l-0.4,6.5
		l-24.3-1.6L268.4,304.1z"/>
	<path class="st7" d="M295.7,334.9l1.9-28.9l14.9,1.1c2.8,0.1,4.9,0.5,6.3,1.1c1.4,0.6,2.6,1.5,3.4,2.9c0.8,1.3,1.1,2.8,1.1,4.8
		c-0.1,1.6-0.5,3-1.4,4c-0.7,1-1.8,2-3.1,2.7c-0.7,0.3-1.8,0.6-3.2,0.9c1,0.4,1.7,0.8,2.2,1.1c0.3,0.2,0.7,0.7,1.3,1.6
		c0.5,0.9,1,1.4,1.2,1.8l3.7,8.6l-10-0.7l-4.2-9.1c-0.5-1.2-1-2-1.5-2.3c-0.7-0.6-1.4-0.8-2.1-0.8l-0.7,0l-0.8,11.7L295.7,334.9z
		 M305.8,318.3l3.7,0.3c0.4,0,1.2-0.1,2.5-0.3c0.5-0.2,1.1-0.3,1.4-0.8c0.4-0.5,0.6-1,0.8-1.6c0-0.9-0.1-1.6-0.8-2.1
		c-0.5-0.5-1.7-0.9-3.3-1l-3.8-0.3L305.8,318.3z"/>
	<path class="st7" d="M327,336.9l1.9-28.9l14.9,1.1c2.8,0.1,4.9,0.5,6.3,1.1c1.4,0.6,2.6,1.5,3.4,2.9c0.8,1.3,1.1,2.8,1.1,4.8
		c-0.1,1.6-0.5,3-1.4,4c-0.7,1-1.8,2-3.1,2.7c-0.7,0.3-1.8,0.6-3.2,0.9c1,0.4,1.7,0.8,2.2,1.1c0.3,0.2,0.7,0.7,1.3,1.6
		c0.5,0.9,1,1.4,1.2,1.8l3.7,8.6l-10-0.7l-4.2-9.1c-0.5-1.2-1-2-1.5-2.3c-0.7-0.6-1.4-0.8-2.1-0.8l-0.7,0l-0.8,11.7L327,336.9z
		 M337.1,320.5l3.7,0.3c0.4,0,1.2-0.1,2.5-0.3c0.5-0.2,1.1-0.3,1.4-0.8c0.4-0.5,0.6-1,0.8-1.6c0-0.9-0.1-1.6-0.8-2.1
		c-0.5-0.5-1.7-0.9-3.3-1l-3.8-0.3L337.1,320.5z"/>
	<path class="st7" d="M357.3,324.7c0.3-4.7,1.9-8.3,4.6-10.7c2.7-2.4,6.6-3.4,11.2-3.1c4.7,0.3,8.3,1.9,10.9,4.6
		c2.4,2.7,3.4,6.4,3.1,11c-0.3,3.3-0.9,6.1-2.2,8.2s-3.1,3.6-5.3,4.7c-2.1,1-5,1.4-8.1,1.3c-3.3-0.3-5.9-0.9-8-2
		c-2.1-1.1-3.8-2.9-4.9-5.3C357.6,330.8,357.1,328,357.3,324.7z M366.2,325.2c-0.3,3,0.2,5.1,1.2,6.4c1,1.3,2.4,2,4.3,2.3
		c1.9,0.1,3.3-0.4,4.6-1.6c1.1-1.2,1.9-3.4,2-6.6c0.1-2.6-0.2-4.7-1.2-6c-1-1.3-2.4-2-4.3-2.3c-1.8-0.1-3.3,0.4-4.4,1.6
		C367.1,320.3,366.5,322.4,366.2,325.2z"/>
	<path class="st7" d="M391,341.4l1.9-28.9l14.9,1.1c2.8,0.3,4.9,0.5,6.3,1.1c1.4,0.6,2.6,1.5,3.4,2.9c0.8,1.3,1.1,2.8,1.1,4.8
		c-0.1,1.6-0.5,3-1.4,4c-0.7,1-1.8,2-3.1,2.7c-0.7,0.3-1.8,0.6-3.2,0.9c1,0.4,1.7,0.8,2.2,1.1c0.3,0.2,0.7,0.7,1.3,1.6
		c0.5,0.9,1,1.4,1.2,1.8l3.7,8.6l-10-0.7l-4.2-9.1c-0.5-1.2-1-2-1.5-2.3c-0.7-0.6-1.4-0.8-2.1-0.8l-0.7,0l-0.8,11.7L391,341.4z
		 M401.1,324.9l3.7,0.3c0.4,0,1.2-0.1,2.5-0.3c0.5-0.2,1.1-0.3,1.4-0.8c0.4-0.5,0.6-1,0.8-1.6c0-0.9-0.1-1.6-0.8-2.1
		c-0.5-0.5-1.7-0.9-3.3-1l-3.8-0.3L401.1,324.9z"/>
</g>
</svg>
