<?xml version="1.0" encoding="utf-8"?>
<!-- Generator: Adobe Illustrator 27.8.0, SVG Export Plug-In . SVG Version: 6.00 Build 0)  -->
<svg version="1.1" id="Layer_1" xmlns="http://www.w3.org/2000/svg" xmlns:xlink="http://www.w3.org/1999/xlink" x="0px" y="0px"
	 viewBox="0 0 720.2 549" style="enable-background:new 0 0 720.2 549;" xml:space="preserve">
<style type="text/css">
	.st0{opacity:0.1;fill-rule:evenodd;clip-rule:evenodd;enable-background:new    ;}
</style>
<path id="Fill-262" class="st0" d="M314,5.3c-2.9-2.9-7.7-2.9-10.6,0s-3,7.7,0,10.6c2.9,2.9,7.7,2.9,10.6,0
	C316.9,12.9,316.9,8.2,314,5.3 M279.2-18.9c3.9-3.9,3.9-10.2,0.1-14.1c-3.9-3.9-10.2-3.9-14.1,0.1c-3.9,3.9-3.9,10.2,0,14.1
	C269-14.9,275.3-14.9,279.2-18.9 M244.4-53.7c5.1-5.1,5.1-13.3,0.1-18.4c-5.1-5.1-13.3-5-18.4,0.1c-5.1,5.1-5.1,13.3-0.1,18.4
	C231-48.6,239.3-48.7,244.4-53.7 M207.3-90.8c5.1-5.1,5.2-13.4,0.1-18.5c-0.1-0.1-0.1-0.1-0.2-0.2L170.7-146
	c-0.1-0.1-0.1-0.1-0.2-0.2c-5.1-5.1-13.4-5.1-18.5,0.1c-5.1,5.1-5.2,13.4-0.1,18.5c0.1,0,0.1,0.1,0.2,0.1L188.6-91
	c0.1,0.1,0.1,0.1,0.1,0.2C193.9-85.6,202.2-85.6,207.3-90.8 M133.4-89.8c5.1-5.1,5.1-13.3,0.1-18.4c-5.1-5.1-13.3-5-18.4,0.1
	S110-94.8,115-89.7C120-84.6,128.3-84.7,133.4-89.8 M168.2-55.9c3.9-3.9,3.9-10.3,0.1-14.1c-3.9-3.9-10.2-3.9-14.1,0.1
	c-3.9,3.9-3.9,10.3-0.1,14.1C158-51.9,164.3-51.9,168.2-55.9 M133.3-35.4L96.7-71.9c-0.1-0.1-0.1-0.1-0.2-0.2
	C91.4-77.2,83.1-77.2,78-72c-5.1,5.1-5.2,13.4-0.1,18.5c0.1,0.1,0.1,0.1,0.2,0.1l36.6,36.6c0.1,0.1,0.1,0.1,0.2,0.2s0.1,0.1,0.2,0.2
	l36.6,36.6c0.1,0.1,0.1,0.1,0.2,0.2c5.1,5.1,13.4,5.1,18.5-0.1c5.1-5.1,5.2-13.4,0.1-18.5c-0.1-0.1-0.1-0.1-0.2-0.2L133.6-35
	c-0.1-0.1-0.1-0.1-0.2-0.2S133.4-35.3,133.3-35.4 M96.2,2.5L59.8-33.9c-0.1-0.1-0.1-0.1-0.2-0.2c-0.1-0.1-0.1-0.1-0.2-0.2l-0.2-0.2
	l0,0c-5.1-4.8-13.2-4.7-18.3,0.4c-5,5-5.2,13.1-0.4,18.3l0,0l0.2,0.2c0.1,0.1,0.1,0.1,0.2,0.2c0.1,0.1,0.1,0.1,0.2,0.2l36.4,36.4
	c0.1,0.1,0.1,0.1,0.2,0.2c5.1,5.1,13.4,5.1,18.6-0.1s5.2-13.5,0.1-18.6C96.3,2.6,96.3,2.5,96.2,2.5 M55.1,35.2l-31.9-32
	C23.1,3.1,23,3,22.9,2.9s-0.2-0.2-0.3-0.3c-0.1,0-0.1,0-0.1,0l0,0c-5-4.8-13-4.7-18.1,0.4s-5.1,13-2.7,15.6s2.4,2.6,2.4,2.6L8,25.1
	l88,88.3c5.1,5.1,13.3,5.1,18.4-0.1c5.1-5.1,5.1-13.4,0.1-18.5c-0.1-0.1-0.2-0.2-0.3-0.3c-0.1,0-3.9-3.9-3.9-3.9L59.6,39.8
	c-0.1-0.1-0.2-0.2-0.3-0.3s-0.2-0.2-0.3-0.3C59,39.1,55.1,35.2,55.1,35.2 M133.4,57.3c5.1-5.1,5.1-13.3,0.1-18.4
	c-5.1-5.1-13.3-5-18.4,0.1S110,52.3,115,57.4S128.3,62.3,133.4,57.3 M124,121.9c-5.1,5.1-5.1,13.3-0.1,18.4c5.1,5.1,13.3,5,18.4-0.1
	s5.1-13.3,0.1-18.4C137.4,116.8,129.1,116.8,124,121.9 M203-20.1c2.9-2.9,3-7.7,0-10.6c-2.9-2.9-7.7-2.9-10.6,0s-3,7.7,0,10.6
	C195.3-17.2,200-17.2,203-20.1 M205.3,41c-3.9-3.9-10.2-3.9-14.1,0c-3.9,3.9-3.9,10.3-0.1,14.1s10.2,3.9,14.1-0.1
	C209.2,51.2,209.2,44.9,205.3,41 M152.1,76c-5.1,5.1-5.2,13.4-0.1,18.5c0.1,0.1,0.1,0.1,0.2,0.2l36.5,36.5c0.1,0.1,0.1,0.1,0.2,0.2
	c5.1,5.1,13.4,5.1,18.5-0.1c5.1-5.1,5.2-13.4,0.1-18.5c-0.1-0.1-0.1-0.1-0.2-0.2L170.7,76c-0.1-0.1-0.1-0.1-0.2-0.2
	C165.5,70.8,157.2,70.8,152.1,76 M153.1,152c-3.9,3.9-3.9,10.2,0,14.1c3.9,3.9,10.2,3.9,14.1-0.1c3.9-3.9,3.9-10.2,0.1-14.1
	C163.4,148.1,157.1,148.1,153.1,152 M240,15.9c2.9-2.9,3-7.7,0-10.6c-2.9-2.9-7.7-2.9-10.6,0c-2.9,2.9-3,7.7,0,10.6
	C232.3,18.8,237,18.8,240,15.9 M229.4,79.3c-2.9,2.9-3,7.7,0,10.6c2.9,2.9,7.7,2.9,10.6,0c2.9-2.9,3-7.7,0-10.6
	C237.1,76.4,232.4,76.4,229.4,79.3 M266.4,42.3c-2.9,2.9-3,7.7,0,10.6c2.9,2.9,7.7,2.9,10.6,0s3-7.7,0-10.6
	C274.1,39.4,269.4,39.4,266.4,42.3"/>
<path class="st0" d="M64.7,145.7c5.1-5.1,5.2-13.4,0.1-18.5c-0.1-0.1-0.1-0.1-0.2-0.2L28.1,90.5c-0.1-0.1-0.1-0.1-0.2-0.2
	c-5.1-5.1-13.4-5.1-18.5,0.1c-5.1,5.1-5.2,13.4-0.1,18.5c0.1,0,0.1,0.1,0.2,0.1L46,145.5c0.1,0.1,0.1,0.1,0.1,0.2
	C51.3,150.9,59.6,150.9,64.7,145.7"/>
</svg>
